<?xml version="1.0" standalone="no"?>
<!DOCTYPE svg PUBLIC "-//W3C//DTD SVG 20010904//EN"
 "http://www.w3.org/TR/2001/REC-SVG-20010904/DTD/svg10.dtd">
<svg version="1.0" xmlns="http://www.w3.org/2000/svg"
 width="1024.000000pt" height="1024.000000pt" viewBox="0 0 1024.000000 1024.000000"
 preserveAspectRatio="xMidYMid meet">
<metadata>
Created by potrace 1.14, written by Peter Selinger 2001-2017
</metadata>
<g transform="translate(0.000000,1024.000000) scale(0.100000,-0.100000)"
fill="#000000" stroke="none">
<path d="M3956 10231 c-3 -4 -19 -11 -35 -14 -38 -8 -94 -57 -117 -105 -16
-32 -20 -69 -24 -260 l-5 -224 -155 -63 c-974 -393 -1721 -1103 -2162 -2058
-39 -83 -74 -163 -78 -177 -5 -14 -22 -63 -40 -110 -69 -188 -133 -412 -162
-568 -5 -31 -14 -77 -19 -102 -9 -47 -23 -142 -41 -275 -6 -44 -13 -224 -17
-400 l-6 -320 -41 -20 c-23 -11 -117 -51 -209 -90 -198 -83 -246 -118 -270
-198 -13 -43 -15 -139 -15 -607 0 -630 0 -631 71 -699 52 -51 97 -61 268 -61
138 0 141 0 146 -22 2 -13 6 -124 7 -248 l3 -225 27 -38 c14 -22 43 -51 65
-65 l38 -27 415 -6 c228 -3 415 -6 416 -7 1 -1 11 -35 23 -75 53 -174 126
-353 213 -526 55 -111 75 -158 68 -170 -4 -9 -124 -131 -266 -271 -141 -140
-270 -275 -286 -299 -35 -56 -38 -131 -8 -191 20 -39 877 -907 950 -962 52
-39 111 -52 174 -37 49 11 64 24 336 295 157 156 291 284 298 284 6 0 69 -29
139 -64 192 -97 333 -155 498 -206 39 -12 82 -26 97 -32 l27 -10 3 -407 c3
-389 4 -408 24 -446 11 -22 40 -53 63 -70 l43 -30 692 -3 692 -2 45 23 c24 13
58 43 74 66 l30 43 5 411 5 411 25 13 c14 6 70 26 125 43 154 48 286 103 449
185 82 41 154 75 160 75 6 0 130 -120 276 -266 146 -146 285 -277 310 -292 62
-37 137 -37 200 0 64 39 952 932 976 983 24 51 24 119 0 170 -12 25 -122 143
-293 315 -150 152 -273 281 -273 288 0 7 26 64 58 125 96 185 158 337 217 529
15 48 32 92 39 97 7 6 172 11 418 13 l406 3 43 30 c23 17 53 50 66 74 22 42
23 53 23 270 0 124 4 231 8 238 5 7 60 12 167 15 184 4 216 14 272 86 24 32
33 55 38 104 3 35 5 313 3 618 l-3 555 -27 46 c-34 58 -56 71 -297 174 -107
47 -197 89 -201 95 -4 6 -10 147 -13 313 -4 166 -11 338 -17 382 -6 44 -15
116 -21 160 -31 244 -112 563 -207 822 -392 1063 -1233 1923 -2282 2333 -74
29 -141 60 -147 68 -10 12 -13 74 -13 232 l0 216 -29 45 c-31 49 -85 89 -120
89 -11 0 -21 5 -21 10 0 13 -2306 14 -2314 1z m2062 -423 c9 -9 12 -414 12
-1760 l0 -1748 -22 -5 c-13 -3 -423 -4 -913 -3 l-890 3 -5 1745 c-3 960 -1
1753 3 1763 7 16 60 17 905 17 685 0 901 -3 910 -12z m702 -746 c193 -94 381
-207 530 -320 25 -18 58 -43 75 -55 122 -90 378 -328 485 -453 141 -163 182
-216 293 -379 113 -166 234 -388 330 -605 93 -210 189 -543 236 -815 35 -209
51 -449 51 -796 0 -286 3 -305 54 -366 14 -17 53 -42 88 -58 35 -15 87 -38
116 -51 29 -13 55 -24 57 -24 2 0 28 -11 57 -24 29 -13 77 -34 106 -46 l52
-22 0 -374 0 -374 -4135 0 -4135 0 0 375 0 375 26 10 c14 6 50 21 80 35 30 14
57 25 59 25 2 0 28 11 57 24 29 13 82 36 118 52 36 15 79 37 96 48 42 26 81
85 93 137 6 25 11 189 11 378 0 184 5 373 11 420 17 136 38 282 49 339 24 128
30 152 50 227 12 44 25 94 29 110 15 56 103 310 126 360 13 27 37 84 55 124
132 305 384 684 620 936 31 33 76 82 100 108 61 67 273 248 409 350 97 72 288
197 356 233 11 6 59 31 106 57 101 55 305 147 325 147 11 0 14 -249 16 -1577
l3 -1578 33 -48 c40 -57 64 -74 134 -93 73 -19 2247 -21 2342 -2 51 11 69 20
106 58 28 27 50 61 58 86 9 32 12 400 12 1596 0 855 3 1557 6 1560 7 7 76 -22
254 -110z m-305 -5192 c16 -25 -58 -262 -119 -382 -154 -306 -432 -547 -756
-657 -174 -60 -415 -85 -578 -61 -88 13 -244 49 -295 69 -292 114 -514 294
-672 546 -86 136 -174 370 -175 463 l0 32 1294 0 c884 0 1297 -3 1301 -10z"/>
</g>
</svg>
